<?xml version="1.0" standalone="no"?>
<!DOCTYPE svg PUBLIC "-//W3C//DTD SVG 20010904//EN"
 "http://www.w3.org/TR/2001/REC-SVG-20010904/DTD/svg10.dtd">
<svg version="1.0" xmlns="http://www.w3.org/2000/svg"
 width="225.000000pt" height="225.000000pt" viewBox="0 0 225.000000 225.000000"
 preserveAspectRatio="xMidYMid meet">

<g transform="translate(0.000000,225.000000) scale(0.100000,-0.100000)"
fill="#000000" stroke="none">
<path d="M500 2037 c-133 -45 -224 -125 -285 -251 -80 -165 -61 -354 52 -507
30 -42 41 -64 33 -69 -33 -21 -120 -100 -153 -140 -57 -68 -115 -193 -132
-283 -9 -49 -15 -139 -15 -238 l0 -159 235 0 235 0 0 -100 0 -100 655 0 655 0
0 100 0 100 235 0 235 0 0 159 c0 200 -16 288 -72 401 -31 65 -59 103 -117
161 -42 42 -87 83 -100 92 l-24 16 46 60 c167 223 117 543 -111 698 -199 135
-461 106 -632 -71 l-44 -46 -71 0 -71 0 -44 46 c-105 107 -211 154 -355 154
-67 -1 -107 -6 -155 -23z m313 -131 c29 -14 67 -39 86 -54 l34 -29 -54 -30
c-77 -44 -153 -129 -197 -220 -36 -75 -37 -82 -37 -188 0 -60 4 -125 9 -144
l8 -34 -59 5 c-116 11 -220 86 -277 198 -61 122 -55 252 15 362 101 157 308
216 472 134z m958 -8 c74 -39 122 -92 162 -175 25 -56 30 -78 30 -147 1 -71
-3 -90 -30 -148 -57 -121 -171 -206 -292 -216 l-53 -5 8 34 c5 19 9 84 9 144
0 106 -1 113 -37 188 -44 91 -120 176 -197 220 l-54 30 34 29 c119 99 286 118
420 46z m-493 -193 c81 -36 161 -121 192 -202 18 -48 21 -73 18 -148 -3 -79
-8 -98 -38 -153 -80 -151 -247 -228 -405 -189 -115 29 -197 94 -252 200 -38
74 -44 207 -13 289 38 101 131 187 245 225 65 21 179 12 253 -22z m-784 -590
c55 -18 96 -25 154 -25 l79 0 30 -38 30 -37 -49 -35 c-70 -48 -141 -131 -187
-219 -39 -76 -71 -176 -71 -225 l0 -26 -181 0 -181 0 4 133 c4 101 10 146 27
192 39 109 124 215 219 276 25 16 47 29 49 29 1 0 36 -11 77 -25z m1387 -3
c96 -62 172 -157 216 -269 22 -58 27 -88 31 -200 l4 -133 -181 0 -181 0 0 26
c0 49 -32 149 -71 224 -47 91 -105 159 -180 215 l-56 41 31 36 c31 35 32 35
126 40 61 4 113 13 145 26 66 26 64 26 116 -6z m-939 -192 c24 -10 76 -24 115
-31 81 -13 177 -1 252 32 l44 19 45 -26 c106 -62 192 -170 233 -292 19 -55 23
-89 24 -192 l0 -125 -530 0 -530 0 0 125 c1 103 5 137 24 192 40 120 120 221
225 287 28 17 51 31 52 31 1 0 21 -9 46 -20z"/>
</g>
</svg>
